<?xml version="1.0" encoding="utf-8"?>

<svg version="1.1" id="Icons" xmlns="http://www.w3.org/2000/svg" xmlns:xlink="http://www.w3.org/1999/xlink" x="0px" y="0px"
	 viewBox="0 0 32 32" style="enable-background:new 0 0 32 32;" xml:space="preserve">
<style type="text/css">
	.st0{fill:none;stroke:#000000;stroke-width:2;stroke-linecap:round;stroke-linejoin:round;stroke-miterlimit:10;}
</style>
<g>
	<path d="M1,12h3c0.4,0,0.7-0.2,0.9-0.5l1.3-2.1C7,7.9,8.7,7,10.4,7h7.2c1.7,0,3.4,0.9,4.3,2.4l1.3,2.1c0.2,0.3,0.5,0.5,0.9,0.5h3
		c0.6,0,1-0.4,1-1s-0.4-1-1-1h-2.4l-1-1.6C22.3,6.3,20,5,17.6,5h-7.2C8,5,5.7,6.3,4.4,8.4l-1,1.6H1c-0.6,0-1,0.4-1,1S0.4,12,1,12z"
		/>
	<path d="M5.9,18.5C6,18.3,6.1,18.2,6.1,18H0v1h4.8C5.3,19,5.6,18.8,5.9,18.5z"/>
	<path d="M22.1,18.5c0.2,0.3,0.6,0.5,1,0.5H28v-1h-6.1C21.9,18.2,22,18.3,22.1,18.5z"/>
</g>
<path d="M25.5,15c-3.6,0-6.5,3-6.5,6.6c0,5.4,5.6,10,5.9,10.2c0.2,0.1,0.4,0.2,0.6,0.2s0.4-0.1,0.6-0.2C26.4,31.6,32,27,32,21.6
	C32,18,29.1,15,25.5,15z M25.5,24c-1.4,0-2.5-1.1-2.5-2.5s1.1-2.5,2.5-2.5s2.5,1.1,2.5,2.5S26.9,24,25.5,24z"/>
<path d="M17,21.6c0-0.2,0-0.4,0-0.6c0,0,0,0,0,0h-6c-0.6,0-1-0.4-1-1s0.4-1,1-1h6c0.1,0,0.3,0,0.4,0.1c0.9-3.1,3.5-5.4,6.7-5.9
	C23.7,13.1,23.4,13,23,13H5c-2,0-3.8,1.2-4.6,3H8c0.6,0,1,0.4,1,1c0,0.5-0.4,0.9-0.9,1c0,0.6-0.3,1.1-0.6,1.6
	C6.9,20.5,5.9,21,4.8,21H0v2v2c0,1.7,1.3,3,3,3h2c1.7,0,3-1.3,3-3v-1h9.3C17.1,23.2,17,22.4,17,21.6z"/>
</svg>
